<svg width="101" height="45" viewBox="0 0 101 45" fill="none" xmlns="http://www.w3.org/2000/svg">
<path d="M57.2392 5.76953L59.1265 9.34541H59.2117L61.099 5.76953H63.0594L60.0397 11.1394V14.0807H58.2985V11.1394L55.2788 5.76953H57.2392Z" fill="white"/>
<path d="M62.4507 10.9973C62.4507 9.08126 63.6318 7.77539 65.4704 7.77539C67.1141 7.77539 68.3926 8.82496 68.3926 10.9363V11.4123H64.1553C64.1553 12.3398 64.7033 12.9134 65.5678 12.9134C66.14 12.9134 66.5906 12.6693 66.761 12.1934L68.3561 12.3032C68.1126 13.4626 67.0776 14.2071 65.5434 14.2071C63.6196 14.1949 62.4507 12.9622 62.4507 10.9973ZM66.761 10.3383C66.761 9.59384 66.2375 9.05685 65.4947 9.05685C64.7276 9.05685 64.1919 9.63045 64.1553 10.3383H66.761Z" fill="white"/>
<path d="M69.2324 12.3398C69.2324 10.9485 70.3404 10.5336 71.5702 10.4237C72.6539 10.3139 73.0801 10.2651 73.0801 9.86234V9.83793C73.0801 9.32534 72.7391 9.03244 72.1547 9.03244C71.5337 9.03244 71.1684 9.33755 71.0467 9.7525L69.4516 9.61825C69.6951 8.48324 70.6692 7.77539 72.1547 7.77539C73.5428 7.77539 74.7969 8.39781 74.7969 9.88674V14.085H73.1653V13.2185H73.1166C72.8122 13.8043 72.2156 14.1949 71.3024 14.1949C70.1091 14.1949 69.2324 13.5725 69.2324 12.3398ZM73.0801 11.8516V11.1926C72.8731 11.3269 72.2643 11.4245 71.8868 11.4733C71.278 11.5587 70.8762 11.8028 70.8762 12.2788C70.8762 12.7548 71.2537 12.9989 71.7894 12.9989C72.5443 12.9989 73.0801 12.4985 73.0801 11.8516Z" fill="white"/>
<path d="M76.1362 7.8452H77.8043V8.93138H77.8652C78.0966 8.16251 78.6567 7.75977 79.3629 7.75977C79.6916 7.75977 79.9839 7.8452 80.2152 7.99165L79.6916 9.41956C79.5333 9.33413 79.3385 9.27311 79.1072 9.27311C78.4131 9.27311 77.8652 9.79789 77.853 10.5546V14.0816H76.124V7.8452H76.1362Z" fill="white"/>
<path d="M84.6113 9.72515C84.5261 9.32241 84.173 8.99289 83.5763 8.99289C83.0406 8.99289 82.6266 9.23698 82.6266 9.60311C82.6266 9.90821 82.8336 10.1035 83.418 10.2255L84.5382 10.4574C85.7437 10.7015 86.3281 11.2385 86.3403 12.1416C86.3403 13.3742 85.1836 14.1919 83.5763 14.1919C81.9325 14.1919 80.9219 13.4597 80.7515 12.2637L82.4439 12.1782C82.5535 12.6908 82.9553 12.9471 83.5763 12.9471C84.173 12.9471 84.5748 12.6786 84.5869 12.3125C84.5748 11.9952 84.3312 11.7999 83.7955 11.6901L82.724 11.4704C81.5064 11.2263 80.9219 10.6283 80.9219 9.68854C80.9219 8.49251 81.9691 7.74805 83.552 7.74805C85.1227 7.74805 86.0481 8.4559 86.1942 9.60311L84.6113 9.72515Z" fill="white"/>
<path d="M89.8228 10.9817C89.8228 9.05343 90.9917 7.75977 92.879 7.75977C94.7663 7.75977 95.9352 9.05343 95.9352 10.9817C95.9352 12.8978 94.7663 14.1915 92.879 14.1915C90.9917 14.1915 89.8228 12.8978 89.8228 10.9817ZM94.1818 10.9695C94.1818 9.88332 93.7313 9.07784 92.879 9.07784C92.0145 9.07784 91.5639 9.88332 91.5639 10.9695C91.5639 12.0557 92.0145 12.849 92.879 12.849C93.7435 12.8612 94.1818 12.0557 94.1818 10.9695Z" fill="white"/>
<path d="M100.464 9.1398H99.2346V14.0704H97.5056V9.1398H96.6289V7.84614H97.5056V7.39458C97.5056 6.03989 98.3701 5.38086 99.539 5.38086C100.075 5.38086 100.537 5.4907 100.757 5.55172L100.452 6.84538C100.318 6.79656 100.099 6.75995 99.8921 6.75995C99.3807 6.75995 99.2224 7.00404 99.2224 7.43119V7.84614H100.452V9.1398H100.464Z" fill="white"/>
<path d="M59.5282 20.9303C58.2619 20.9303 57.3974 21.9067 57.3974 23.6397C57.3974 25.3727 58.2253 26.3613 59.5404 26.3613C60.7093 26.3613 61.4033 25.7022 61.4277 24.6771H59.65V23.359H63.1201V24.4086C63.1201 26.5931 61.6225 27.9234 59.5404 27.9234C57.2026 27.9234 55.6318 26.288 55.6318 23.6641C55.6318 20.9669 57.3243 19.3926 59.5038 19.3926C61.379 19.3926 62.8157 20.552 63.0471 22.1874H61.2694C61.038 21.3941 60.4292 20.9303 59.5282 20.9303Z" fill="white"/>
<path d="M68.8307 21.563H70.5597V27.7872H68.9038V26.6522H68.8429C68.5628 27.3845 67.8932 27.8604 66.9556 27.8604C65.7015 27.8604 64.8613 26.9695 64.8491 25.5172V21.5508H66.5781V25.2121C66.5781 25.9443 67.0043 26.4081 67.6496 26.4081C68.2706 26.4081 68.8429 25.9688 68.8307 25.1389V21.563Z" fill="white"/>
<path d="M72.3013 19.8782C72.3013 19.4023 72.7274 19.0117 73.2267 19.0117C73.7381 19.0117 74.1642 19.4023 74.1642 19.8782C74.1642 20.3664 73.7381 20.7569 73.2267 20.7569C72.7274 20.7569 72.3013 20.3664 72.3013 19.8782ZM72.3622 21.5624H74.0912V27.7866H72.3622V21.5624Z" fill="white"/>
<path d="M75.7466 24.6873C75.7466 22.5516 76.9033 21.4898 78.267 21.4898C79.302 21.4898 79.8012 22.1122 80.0326 22.6126H80.0813V19.4883H81.7981V27.7872H80.0935V26.7865H80.0204C79.7769 27.3113 79.2655 27.8849 78.2549 27.8849C76.8546 27.8971 75.7466 26.7621 75.7466 24.6873ZM80.1178 24.6751C80.1178 23.5645 79.6429 22.8567 78.815 22.8567C77.9626 22.8567 77.5121 23.6011 77.5121 24.6751C77.5121 25.7613 77.9748 26.518 78.815 26.518C79.6429 26.518 80.1178 25.7857 80.1178 24.6751Z" fill="white"/>
<path d="M83.6729 19.8782C83.6729 19.4023 84.099 19.0117 84.5982 19.0117C85.1096 19.0117 85.5358 19.4023 85.5358 19.8782C85.5358 20.3664 85.1096 20.7569 84.5982 20.7569C84.099 20.7569 83.6729 20.3664 83.6729 19.8782ZM83.7337 21.5624H85.4627V27.7866H83.7337V21.5624Z" fill="white"/>
<path d="M89.0796 27.7862H87.3506V21.562H88.9944V22.6604H89.0674C89.3475 21.9403 90.0172 21.4766 90.9304 21.4766C92.221 21.4766 93.0734 22.3675 93.0734 23.8198V27.7862H91.3444V24.1249C91.3444 23.3682 90.9304 22.9045 90.2363 22.9045C89.5423 22.9045 89.0674 23.3804 89.0552 24.1737V27.7862H89.0796Z" fill="white"/>
<path d="M94.9116 28.5185L96.5067 28.2988C96.6528 28.6405 97.0303 28.97 97.7974 28.97C98.5523 28.97 99.0881 28.6405 99.0881 27.8228V26.6878H99.015C98.7837 27.2004 98.2357 27.7008 97.2495 27.7008C95.8492 27.7008 94.729 26.7366 94.729 24.6619C94.729 22.5383 95.8857 21.4766 97.2495 21.4766C98.2844 21.4766 98.7958 22.099 99.0272 22.5994H99.0881V21.5498H100.805V27.835C100.805 29.385 99.5386 30.2027 97.7609 30.2027C96.0806 30.2149 95.1186 29.4582 94.9116 28.5185ZM99.1002 24.6497C99.1002 23.5635 98.6254 22.8435 97.7974 22.8435C96.9451 22.8435 96.4945 23.5879 96.4945 24.6497C96.4945 25.7237 96.9572 26.3949 97.7974 26.3949C98.6254 26.4071 99.1002 25.7481 99.1002 24.6497Z" fill="white"/>
<path d="M58.846 34.5641C57.9937 34.5641 57.5188 34.9547 57.5188 35.4917C57.5067 36.0897 58.1155 36.3582 58.8338 36.5168L59.5766 36.6999C61.0134 37.0294 62.0605 37.7617 62.0605 39.1408C62.0605 40.6663 60.8673 41.6305 58.846 41.6305C56.837 41.6305 55.5585 40.7029 55.5098 38.9089H57.2022C57.2631 39.7388 57.9085 40.1659 58.8217 40.1659C59.7105 40.1659 60.2828 39.751 60.295 39.1408C60.295 38.5794 59.7836 38.3231 58.8826 38.1034L57.9815 37.8715C56.5813 37.5298 55.7168 36.8341 55.7289 35.6137C55.7168 34.1004 57.0561 33.0996 58.8704 33.0996C60.709 33.0996 61.9266 34.1248 61.9509 35.6015H60.2706C60.1976 34.9425 59.6862 34.5641 58.846 34.5641Z" fill="white"/>
<path d="M66.9796 35.2817H68.7086V41.506H67.0527V40.3709H66.9918C66.7118 41.1032 66.0421 41.5792 65.1045 41.5792C63.8504 41.5792 63.0102 40.6883 62.998 39.2359V35.2695H64.7271V38.9308C64.7271 39.6631 65.1532 40.1269 65.7986 40.1269C66.4195 40.1269 66.9918 39.6875 66.9796 38.8576V35.2817Z" fill="white"/>
<path d="M69.6348 38.4173C69.6348 36.5134 70.8037 35.1953 72.691 35.1953C74.3104 35.1953 75.4062 36.135 75.4793 37.5752H73.8477C73.7503 36.9527 73.3485 36.5378 72.7153 36.5378C71.9117 36.5378 71.3881 37.209 71.3881 38.3929C71.3881 39.5889 71.9117 40.2601 72.7153 40.2601C73.312 40.2601 73.7381 39.8818 73.8477 39.2227H75.4793C75.3941 40.6507 74.3591 41.627 72.7032 41.627C70.7793 41.627 69.6348 40.3089 69.6348 38.4173Z" fill="white"/>
<path d="M76.124 38.4173C76.124 36.5134 77.2929 35.1953 79.1802 35.1953C80.7997 35.1953 81.8955 36.135 81.9686 37.5752H80.337C80.2395 36.9527 79.8377 36.5378 79.2046 36.5378C78.401 36.5378 77.8774 37.209 77.8774 38.3929C77.8774 39.5889 78.401 40.2601 79.2046 40.2601C79.8012 40.2601 80.2274 39.8818 80.337 39.2227H81.9686C81.8833 40.6507 80.8484 41.627 79.1924 41.627C77.2686 41.627 76.124 40.3089 76.124 38.4173Z" fill="white"/>
<path d="M82.6143 38.4173C82.6143 36.5012 83.7953 35.1953 85.6339 35.1953C87.2777 35.1953 88.5562 36.2449 88.5562 38.3562V38.8322H84.3189C84.3189 39.7597 84.8668 40.3333 85.7313 40.3333C86.3036 40.3333 86.7541 40.0893 86.9246 39.6133L88.5197 39.7231C88.2762 40.8825 87.2412 41.627 85.707 41.627C83.7832 41.627 82.6143 40.3944 82.6143 38.4173ZM86.9246 37.7582C86.9246 37.0138 86.401 36.4768 85.6583 36.4768C84.8912 36.4768 84.3554 37.0504 84.3189 37.7582H86.9246Z" fill="white"/>
<path d="M93.0737 37.149C92.9885 36.7462 92.6354 36.4167 92.0387 36.4167C91.503 36.4167 91.089 36.6608 91.089 37.0269C91.089 37.332 91.296 37.5273 91.8804 37.6494L93.0006 37.8812C94.2061 38.1253 94.7905 38.6623 94.8027 39.5654C94.8027 40.7981 93.646 41.6158 92.0387 41.6158C90.395 41.6158 89.3843 40.8835 89.2139 39.6875L90.9063 39.6021C91.0159 40.1146 91.4177 40.3709 92.0387 40.3709C92.6475 40.3709 93.0372 40.1024 93.0493 39.7363C93.0372 39.419 92.7936 39.2237 92.2579 39.1139L91.1864 38.8942C89.9688 38.6501 89.3843 38.0521 89.3843 37.1124C89.3843 35.9163 90.4315 35.1719 92.0144 35.1719C93.5851 35.1719 94.5105 35.8797 94.6566 37.0269L93.0737 37.149Z" fill="white"/>
<path d="M99.2705 37.149C99.1852 36.7462 98.8321 36.4167 98.2355 36.4167C97.6998 36.4167 97.2858 36.6608 97.2858 37.0269C97.2858 37.332 97.4928 37.5273 98.0772 37.6494L99.1974 37.8812C100.403 38.1253 100.987 38.6623 100.999 39.5654C100.999 40.7981 99.8428 41.6158 98.2355 41.6158C96.5917 41.6158 95.5811 40.8835 95.4106 39.6875L97.1031 39.6021C97.2127 40.1146 97.6145 40.3709 98.2355 40.3709C98.8443 40.3709 99.2339 40.1024 99.2461 39.7363C99.2339 39.419 98.9904 39.2237 98.4547 39.1139L97.3832 38.8942C96.1656 38.6501 95.5811 38.0521 95.5811 37.1124C95.5811 35.9163 96.6283 35.1719 98.2111 35.1719C99.7819 35.1719 100.707 35.8797 100.853 37.0269L99.2705 37.149Z" fill="white"/>
<path d="M17.0709 44.0309C17.0344 44.0309 17.01 44.0309 16.9735 44.0309C11.8839 44.0065 0.0608806 41.9318 0 23.1737C0.0365283 9.06545 6.66034 0.302734 17.2779 0.302734C25.4481 0.302734 31.5483 5.37974 32.4493 12.9342L32.4859 13.2027H23.2929L23.2564 13.0197C22.6111 10.0784 20.4315 8.39422 17.2901 8.39422C12.1761 8.39422 9.30256 12.9098 9.16862 21.1233C11.129 17.5719 15.1593 15.3873 19.7618 15.3873C23.3294 15.3873 26.6048 16.7054 28.9913 19.0974C31.5118 21.6359 32.8999 25.2118 32.8877 29.1782C32.8999 33.3033 31.4753 36.9036 28.7722 39.6129C25.9108 42.4565 21.7587 44.0309 17.0709 44.0309ZM0.487047 23.1737C0.535751 41.5046 12.0422 43.5427 16.9857 43.5549C17.0222 43.5549 17.0466 43.5549 17.0831 43.5549C21.637 43.5549 25.6673 42.0294 28.4434 39.2468C31.0491 36.6351 32.425 33.1446 32.4128 29.1538C32.425 25.3216 31.0856 21.8556 28.6626 19.4147C26.3735 17.1081 23.2077 15.8389 19.774 15.8389C15.208 15.8389 11.2386 18.0601 9.43649 21.6359L9.37561 21.7702H8.70592V21.5261C8.73028 12.8732 11.8595 7.90604 17.2901 7.90604C20.5655 7.90604 22.9398 9.70008 23.6704 12.7268H31.9501C30.976 5.57501 25.1072 0.778703 17.2901 0.778703C6.96474 0.778703 0.523575 9.35836 0.487047 23.1737ZM16.937 37.0622C12.8093 37.0622 9.58261 33.706 9.58261 29.4223C9.60696 25.1386 12.858 21.7824 16.9979 21.7824C18.9704 21.7824 20.7846 22.5269 22.124 23.8693C23.5364 25.285 24.3035 27.2499 24.2914 29.3979C24.3035 31.5459 23.5243 33.523 22.1118 34.9509C20.7603 36.3178 18.9339 37.0622 16.937 37.0622ZM16.9979 22.2584C13.1259 22.2584 10.0818 25.4071 10.0575 29.4223C10.0575 33.4375 13.0771 36.5863 16.937 36.5863C18.7999 36.5863 20.5168 35.8906 21.7709 34.6214C23.0981 33.2911 23.8165 31.436 23.8165 29.4101C23.8287 27.3842 23.1103 25.5413 21.7831 24.2111C20.5411 22.954 18.8486 22.2584 16.9979 22.2584Z" fill="white"/>
<path d="M17.0709 44.0309C17.0344 44.0309 17.01 44.0309 16.9735 44.0309C11.8839 44.0065 0.0608806 41.9318 0 23.1737C0.0365283 9.06545 6.66034 0.302734 17.2779 0.302734C25.4481 0.302734 31.5483 5.37974 32.4493 12.9342L32.4859 13.2027H23.2929L23.2564 13.0197C22.6111 10.0784 20.4315 8.39422 17.2901 8.39422C12.1761 8.39422 9.30256 12.9098 9.16862 21.1233C11.129 17.5719 15.1593 15.3873 19.7618 15.3873C23.3294 15.3873 26.6048 16.7054 28.9913 19.0974C31.5118 21.6359 32.8999 25.2118 32.8877 29.1782C32.8999 33.3033 31.4753 36.9036 28.7722 39.6129C25.9108 42.4565 21.7587 44.0309 17.0709 44.0309ZM0.487047 23.1737C0.535751 41.5046 12.0422 43.5427 16.9857 43.5549C17.0222 43.5549 17.0466 43.5549 17.0831 43.5549C21.637 43.5549 25.6673 42.0294 28.4434 39.2468C31.0491 36.6351 32.425 33.1446 32.4128 29.1538C32.425 25.3216 31.0856 21.8556 28.6626 19.4147C26.3735 17.1081 23.2077 15.8389 19.774 15.8389C15.208 15.8389 11.2386 18.0601 9.43649 21.6359L9.37561 21.7702H8.70592V21.5261C8.73028 12.8732 11.8595 7.90604 17.2901 7.90604C20.5655 7.90604 22.9398 9.70008 23.6704 12.7268H31.9501C30.976 5.57501 25.1072 0.778703 17.2901 0.778703C6.96474 0.778703 0.523575 9.35836 0.487047 23.1737ZM16.937 37.0622C12.8093 37.0622 9.58261 33.706 9.58261 29.4223C9.60696 25.1386 12.858 21.7824 16.9979 21.7824C18.9704 21.7824 20.7846 22.5269 22.124 23.8693C23.5364 25.285 24.3035 27.2499 24.2914 29.3979C24.3035 31.5459 23.5243 33.523 22.1118 34.9509C20.7603 36.3178 18.9339 37.0622 16.937 37.0622ZM16.9979 22.2584C13.1259 22.2584 10.0818 25.4071 10.0575 29.4223C10.0575 33.4375 13.0771 36.5863 16.937 36.5863C18.7999 36.5863 20.5168 35.8906 21.7709 34.6214C23.0981 33.2911 23.8165 31.436 23.8165 29.4101C23.8287 27.3842 23.1103 25.5413 21.7831 24.2111C20.5411 22.954 18.8486 22.2584 16.9979 22.2584ZM16.937 33.8769C14.5383 33.8769 12.651 31.9242 12.651 29.4223C12.6632 26.9326 14.5626 24.9677 16.9735 24.9677C18.1181 24.9677 19.1896 25.3949 19.9688 26.1882C20.7846 27.018 21.2352 28.1531 21.2352 29.4101C21.2473 30.6671 20.7846 31.8144 19.9688 32.6443C19.1652 33.4375 18.0937 33.8769 16.937 33.8769ZM16.9735 25.4437C14.8305 25.4437 13.138 27.1889 13.1259 29.4223C13.1259 31.6557 14.8062 33.4009 16.937 33.4009C17.9719 33.4009 18.9217 33.0104 19.6157 32.3147C20.3463 31.5703 20.7481 30.5451 20.7481 29.4223C20.7481 28.2995 20.3585 27.2743 19.6279 26.5421C18.9339 25.8342 17.9963 25.4437 16.9735 25.4437Z" fill="white"/>
<path d="M17.9953 40.3447C17.9709 40.3447 17.9466 40.3447 17.9222 40.3447C11.8463 40.3081 7.10982 36.6102 4.93029 30.2151C1.98367 21.5867 4.37019 11.1397 10.373 6.41666C13.6606 3.82934 17.5935 3.04826 21.1489 4.2931C24.7774 5.55015 27.5413 8.7721 28.5398 12.8972L28.0771 13.007C27.1152 9.02839 24.4608 5.94069 20.9906 4.73246C17.5935 3.54864 13.8189 4.30531 10.6652 6.78279C4.91812 11.3106 2.54377 21.7453 5.38081 30.0443C7.49945 36.2441 12.0655 39.8078 17.9344 39.8444C17.9587 39.8444 17.9831 39.8444 18.0074 39.8444C20.9906 39.8444 23.4989 38.746 25.2644 36.659C27.2856 34.2548 28.0893 30.7643 27.4439 27.0664C26.616 22.2701 22.817 20.0733 19.5416 19.6096C15.9253 19.097 11.3836 20.4517 9.38675 24.6011L8.96058 24.3937C11.0671 20.0245 15.8279 18.6088 19.6147 19.1336C23.0484 19.6218 27.0421 21.9284 27.9188 26.981C28.5885 30.8132 27.7483 34.45 25.6297 36.9519C23.7546 39.1853 21.1245 40.3447 17.9953 40.3447Z" fill="white"/>
<path d="M47.2922 43.9843H42.3974V37.4062H35.8345V32.5H42.3974V25.9219H47.2922V32.5H53.8551V37.4062H47.2922V43.9843ZM42.787 43.5938H46.9026V37.0156H53.4655V32.8906H46.9026V26.3124H42.787V32.8906H36.2363V37.0156H42.7992V43.5938H42.787Z" fill="white"/>
<path d="M53.6603 35.4512H36.0415V35.8417H53.6603V35.4512Z" fill="white"/>
<path d="M53.6599 34.1816H36.041V34.5722H53.6599V34.1816Z" fill="white"/>
<path d="M45.6724 26.166H45.2827V43.8257H45.6724V26.166Z" fill="white"/>
<path d="M44.4058 26.166H44.0161V43.8257H44.4058V26.166Z" fill="white"/>
</svg>
