<svg width="64" height="72" viewBox="0 0 64 72" fill="none" xmlns="http://www.w3.org/2000/svg">
<path d="M3.76726 24.3114C3.48678 23.8982 3.23736 23.5038 2.96159 23.1293C-0.355216 18.6218 2.53899 13.0049 7.50572 12.4247C8.97117 12.2539 10.286 12.7992 11.5134 13.5549C11.8324 13.7511 12.1148 14.0077 12.4979 14.3001C13.8513 13.4162 15.2236 12.5209 16.6712 11.5756C14.8829 8.68228 14.6871 5.8125 17.0128 3.10781C18.7569 1.07953 21.0176 0.439918 23.5382 1.17104C26.4785 2.02386 27.8178 4.04177 28.2715 7.9238C30.6349 8.04172 33.0171 8.1087 35.3898 8.29266C37.852 8.48323 40.2248 9.17096 42.4827 10.1228C44.6927 11.054 46.8829 12.0917 48.9291 13.3351C50.9705 14.5747 52.8228 16.1265 54.8502 17.6086C55.6897 17.1001 56.6479 16.5652 57.8488 16.5379C60.1171 16.485 61.7473 17.4303 62.825 19.3925C63.9168 21.3784 63.6862 23.2991 62.4918 25.151C62.2113 25.5868 61.9195 26.0312 61.5581 26.3962C60.9322 27.0283 60.9793 27.683 61.2061 28.4792C61.9977 31.2509 62.4862 34.0763 62.7582 36.9565C63.4339 44.114 61.6664 50.6677 57.847 56.6393C53.6106 63.2628 47.6057 67.6024 40.0591 69.8477C36.1466 71.0118 32.1577 71.2637 28.1661 70.8646C22.0699 70.2552 16.5912 67.9543 11.7957 64.093C7.15653 60.3572 3.84914 55.6582 1.8585 50.0517C0.45422 46.097 -0.230035 41.9951 0.0692677 37.7999C0.388336 33.333 1.55919 29.0623 3.49149 25.0114C3.57337 24.8415 3.63078 24.6614 3.76726 24.3114ZM60.743 38.2876C60.3619 38.3574 60.0842 38.4678 59.815 38.448C58.4484 38.3471 57.6728 39.0037 57.0912 40.2169C56.3542 41.7536 55.0488 42.6876 53.3339 42.9064C52.404 43.0253 51.4571 43.0668 50.5187 43.0555C48.2928 43.0281 46.9648 41.8385 46.785 39.631C46.7172 38.8037 46.4706 38.1622 45.8127 37.6942C43.6178 36.132 43.903 32.2528 45.7299 30.7915C46.576 30.1141 47.3601 29.3575 48.161 28.6245C48.753 28.083 49.3808 27.567 49.8994 26.9594C50.8115 25.8906 50.4265 24.4849 49.1229 23.9538C48.9093 23.867 48.6674 23.8482 48.4396 23.7953C48.1196 23.7208 47.7911 23.668 47.4815 23.5633C45.0767 22.7482 44.1901 20.4463 45.4334 18.2331C46.0716 17.0973 46.737 15.9765 47.3732 14.8784C43.7421 11.9558 35.0124 9.4568 30.8702 10.0983C31.7954 11.4407 32.7309 12.7436 33.6091 14.0841C34.9437 16.1209 34.8919 18.169 33.53 20.1784C33.2128 20.6463 32.8495 21.084 32.4928 21.5237C31.385 22.8906 29.9356 23.485 28.2235 23.1651C26.7985 22.8991 25.814 23.2953 24.9556 24.4849C23.9457 25.8868 22.5179 26.4953 20.7428 26.1302C19.9616 25.9689 19.1597 25.883 18.3625 25.8349C17.4599 25.7812 16.6843 26.1151 16.1601 26.8764C15.6245 27.6547 15.6283 28.4509 16.161 29.2575C16.7079 30.0849 17.2199 30.9358 17.7385 31.782C18.1018 32.3764 18.659 32.6377 19.3028 32.5179C19.891 32.4084 20.4877 32.2047 21.0129 31.9188C21.9805 31.3915 22.9791 30.9802 24.0756 30.9085C24.7128 30.867 25.3585 30.966 25.9881 31.0009C26.2846 30.4075 26.519 29.8915 26.7929 29.3981C28.2988 26.6896 31.818 25.2132 34.9578 26.6783C38.5353 28.3472 39.9038 32.9849 37.6506 36.2886C37.2544 36.8697 36.8675 37.4584 36.4553 38.0754C37.4115 39.2452 38.3527 40.364 39.2582 41.5112C40.5533 43.1536 40.3603 44.8234 38.7575 46.0875C38.461 46.3215 38.1579 46.547 37.8586 46.7772C34.6595 49.2309 34.6378 49.2243 33.6034 52.962C33.3182 53.9912 32.8938 54.8969 32.1709 55.6846C31.2626 56.6742 30.6095 57.794 30.4156 59.1695C30.3459 59.6648 30.104 60.1638 29.8358 60.5968C29.2315 61.5732 27.9186 62.1496 26.9331 61.9487C25.5881 61.6732 24.9001 60.9779 24.6526 59.5883C24.437 58.3808 24.262 57.1657 24.0549 55.9572C23.7838 54.379 23.5965 52.7941 22.4596 51.4941C21.4986 50.395 20.7005 49.1535 19.7884 48.0083C19.0995 47.1422 18.5997 46.2026 18.3173 45.1309C17.9926 43.8979 17.6246 42.6772 17.2839 41.4489C16.9451 40.2253 16.2683 39.3801 14.9808 39.0046C14.273 38.798 13.5294 38.4489 12.9986 37.9527C11.6922 36.732 10.3971 35.4707 9.29118 34.0716C8.24362 32.7471 7.01347 32.2792 5.44919 32.6396C4.53905 32.8499 3.66467 33.216 2.82888 33.4933C0.407159 42.8847 3.66373 54.7091 12.6767 62.21C22.3852 70.2892 35.9178 71.1344 46.3972 64.9439C56.8352 58.7761 61.5807 47.2479 60.743 38.2876ZM13.6593 15.8973C14.7709 18.5492 14.6193 20.8869 13.0165 23.0585C11.7261 24.8066 10.4357 26.5547 9.13212 28.2915C8.25492 29.4604 7.72502 29.4547 6.83747 28.3094C6.32922 27.6538 5.82002 26.9981 5.13012 26.1076C4.45246 27.8849 3.87738 29.3934 3.22701 31.099C3.69855 31.0066 3.93009 31.0019 4.12868 30.917C6.86758 29.749 9.6959 30.982 11.1303 33.2358C12.2842 35.049 13.9106 36.5376 16.0697 37.2999C17.5691 37.8291 18.5922 38.9329 19.0505 40.4895C19.3847 41.6215 19.6793 42.7649 19.9927 43.9027C20.2957 45.0017 20.6929 46.0432 21.4308 46.9507C22.5019 48.2696 23.5645 49.6026 24.5208 51.0054C25.0121 51.7271 25.398 52.5809 25.5966 53.4299C25.9731 55.0337 26.1632 56.6808 26.4672 58.3025C26.5755 58.877 26.791 59.4317 26.9726 60.0468C28.1266 59.8997 28.4833 59.2449 28.5934 58.3931C28.743 57.2318 29.1431 56.1431 29.9421 55.3261C31.2636 53.9742 31.7973 52.2903 32.2801 50.5554C32.3817 50.1913 32.4646 49.8196 32.5992 49.4677C32.9935 48.4366 33.5526 47.5319 34.4787 46.8706C35.3616 46.2404 36.2209 45.5734 37.0501 44.8734C37.4972 44.496 37.8596 44.0187 38.3029 43.5413C37.2572 42.18 36.3809 40.9253 35.1141 39.8291C34.5089 40.6168 33.9987 41.2848 33.4839 41.9499C32.602 43.0914 32.074 43.0904 31.1883 41.9197C30.1906 40.6018 29.2344 39.2518 28.2113 37.9537C27.1185 36.5678 26.1576 35.1301 25.943 33.3839C25.0629 32.7216 24.1791 32.7613 23.3123 33.083C22.564 33.3613 21.8544 33.7443 21.1344 34.0943C19.1334 35.0688 17.4495 34.7028 16.1563 32.9094C15.4674 31.9537 14.8349 30.9443 14.2927 29.899C12.9026 27.2179 14.7266 24.0859 17.7488 23.9557C18.6364 23.917 19.5447 23.9821 20.42 24.1359C21.7932 24.3774 22.885 24.201 23.7245 22.9029C24.5425 21.6378 25.8018 21.0171 27.3529 21.0991C27.9656 21.1312 28.5915 21.2171 29.1892 21.1284C29.7219 21.0491 30.3384 20.8859 30.712 20.5388C31.289 20.0029 31.754 19.3142 32.1511 18.6246C32.7639 17.5586 32.7441 16.4067 32.0806 15.385C30.9266 13.6086 29.6843 11.8907 28.5727 10.2842C27.7275 10.0351 27.4837 10.47 27.1618 10.9209C25.7048 12.9558 24.2234 14.9728 22.7128 16.9671C22.1038 17.7699 21.5259 17.7529 20.8576 17.0086C20.6054 16.7284 20.388 16.4171 20.1593 16.1162C19.4505 15.1794 18.7446 14.2407 17.9314 13.1615C16.4942 14.0813 15.121 14.9605 13.6593 15.8973ZM49.1898 15.7398C48.3992 17.1114 47.7441 18.2029 47.1351 19.319C46.5704 20.3548 46.8631 21.1652 47.953 21.5859C48.433 21.7708 48.962 21.8246 49.4552 21.9793C50.371 22.267 51.1748 22.7048 51.7178 23.5651C53.0129 25.6189 52.307 27.5764 50.8284 28.899C49.6331 29.9679 48.3841 30.9783 47.2113 32.0707C45.8664 33.3235 45.889 35.0575 47.249 36.2348C48.0368 36.9169 48.5065 37.7471 48.7239 38.7489C49.2133 41.0093 49.2152 41.0084 51.5465 41.0055C51.5936 41.0055 51.6416 41.0017 51.6877 41.0065C53.6172 41.18 54.9537 40.3536 55.7509 38.6008C56.4126 37.1442 57.6305 36.5631 59.1458 36.4603C59.6032 36.4292 60.0597 36.3942 60.6226 36.3527C60.5736 33.9669 59.9618 31.8094 59.4508 29.5924C57.9797 30.5887 57.847 30.5679 56.7985 29.1651C55.8093 27.8425 54.7965 26.5349 53.8628 25.1736C53.4713 24.6029 53.2191 23.9255 52.9668 23.2717C52.4341 21.8887 52.8925 20.5869 53.4732 19.2058C52.0717 18.0718 50.6929 16.9567 49.1898 15.7398ZM32.3516 40.2102C33.8237 38.1461 35.2543 36.448 36.3301 34.5471C37.4228 32.616 36.539 29.933 34.7555 28.816C32.9851 27.7076 30.841 27.8632 29.3972 29.2056C27.8687 30.6264 27.3585 32.9981 28.4456 34.7594C29.5515 36.549 30.8909 38.1942 32.3516 40.2102ZM8.14103 26.3245C9.41448 24.5831 10.7661 22.9953 11.8221 21.2303C13.4993 18.4284 11.5567 14.7435 8.34245 14.4483C6.65487 14.2935 5.2873 14.986 4.36116 16.385C3.28254 18.0143 3.13948 19.7718 4.24351 21.4359C5.28354 23.0029 6.46945 24.4727 7.59984 25.9783C7.67702 26.0802 7.82667 26.1274 8.14103 26.3245ZM21.7621 14.9256C22.9509 13.3303 24.0446 11.8124 25.1938 10.336C26.1105 9.15964 26.2498 7.83229 26.054 6.43985C25.7745 4.45403 23.558 2.63612 21.5805 2.85027C17.4702 3.2946 16.4048 7.46814 18.1103 10.0285C19.2049 11.67 20.467 13.2002 21.7621 14.9256ZM61.3727 21.2161C61.384 22.685 60.9012 23.9 59.607 24.6755C58.2413 25.4953 56.9566 25.1698 55.686 24.3302C56.5773 25.3189 57.0648 26.5915 58.3194 27.5113C59.4348 25.3793 61.8508 24.0642 61.3727 21.2161ZM59.2174 21.9293C59.2494 21.1765 58.7929 20.6737 58.0512 20.6444C57.302 20.6152 56.7938 21.0765 56.7665 21.8114C56.7392 22.5519 57.2098 23.0727 57.9336 23.1029C58.6743 23.134 59.1863 22.6661 59.2174 21.9293Z" fill="black"/>
<path d="M32.1096 36.2996C30.0023 36.2741 28.3382 34.6137 28.3345 32.5326C28.3307 30.3911 30.0324 28.7364 32.2132 28.76C34.3431 28.7836 36.0891 30.4119 35.9959 32.5015C35.9083 34.4618 34.6396 36.3514 32.1096 36.2996ZM33.977 32.5043C33.9648 31.5713 33.0857 30.6562 32.1915 30.6458C31.1176 30.6336 30.3675 31.4345 30.3919 32.5666C30.4136 33.5383 31.2513 34.3628 32.2056 34.3515C33.145 34.3401 33.9902 33.459 33.977 32.5043Z" fill="black"/>
<path d="M7.74964 22.6662C5.63946 22.6426 3.96976 20.9747 3.9707 18.8926C3.97164 16.837 5.70252 15.0483 7.70823 15.0314C9.80429 15.0144 11.7789 16.8493 11.6528 18.8417C11.4985 21.2804 9.72805 22.7586 7.74964 22.6662ZM9.62169 18.7559C9.58781 17.8578 8.67013 17.004 7.74117 17.0068C6.71337 17.0096 5.97265 17.8747 6.03194 19.004C6.08653 20.036 6.82632 20.6596 7.936 20.6087C8.95814 20.5615 9.66028 19.7908 9.62169 18.7559Z" fill="black"/>
<path d="M25.3435 7.34288C25.3303 9.44381 23.6776 11.1711 21.6097 11.1344C18.9791 11.0881 17.8167 8.95608 17.7828 7.26836C17.7452 5.37876 19.5579 3.4967 21.5514 3.48444C23.5665 3.47217 25.5779 5.31838 25.3435 7.34288ZM21.5947 5.56649C20.5029 5.56177 19.7339 6.26742 19.7283 7.27873C19.7236 8.27778 20.6657 9.20702 21.6446 9.16739C22.5773 9.1306 23.43 8.24382 23.4413 7.29855C23.4545 6.29384 22.6837 5.57121 21.5947 5.56649Z" fill="black"/>
</svg>
