<svg width="73" height="71" viewBox="0 0 73 71" fill="none" xmlns="http://www.w3.org/2000/svg">
<path d="M19.5447 54.8971C13.4002 45.2522 16.2307 34.2881 23.1574 28.4598C30.8323 22.0016 41.4984 22.0267 49.1037 28.5341C56.0932 34.5133 58.6546 45.4191 52.6139 54.9086C53.9721 57.2724 55.3565 59.6819 56.7432 62.0914C57.2576 62.9864 57.7799 63.8769 58.2919 64.773C58.6055 65.3217 58.8826 65.868 58.4504 66.5013C57.9954 67.1688 57.3454 67.1951 56.66 67.0854C55.1364 66.8408 53.6163 66.571 52.0927 66.3207C51.7928 66.2715 51.4872 66.2601 51.1165 66.2247C50.2019 67.3391 49.3022 68.465 48.3727 69.5635C47.0898 71.0792 46.3166 71.0197 45.3324 69.336C44.1088 67.2443 42.9045 65.1411 41.6079 62.8973C37.9894 63.8803 34.3345 63.9546 30.5883 62.8756C29.6965 64.4118 28.8218 65.9195 27.946 67.4272C27.5058 68.1861 27.0884 68.96 26.6197 69.7007C25.8921 70.8483 25.0288 70.95 24.1325 69.9384C23.0753 68.7439 22.0912 67.4843 21.0306 66.1995C19.393 66.4533 17.7736 66.7036 16.1543 66.9562C15.8999 66.9962 15.6502 67.0648 15.3959 67.0991C14.755 67.1848 14.1665 67.1277 13.7446 66.5322C13.3067 65.9138 13.5359 65.3582 13.8564 64.8016C15.4814 61.9851 17.1088 59.1698 18.7327 56.3522C19.0144 55.863 19.2835 55.3658 19.5447 54.8971ZM36.061 26.4103C27.0336 26.2285 18.8536 33.6583 18.8308 43.6119C18.8068 53.7118 27.134 60.9598 36.126 60.953C45.0485 60.9461 53.4076 53.6981 53.3506 43.5479C53.2935 33.5166 44.9709 26.168 36.061 26.4103ZM50.9649 57.3821C48.6932 59.0167 46.5048 60.5929 44.2673 62.2035C45.1534 63.726 46.0748 65.3102 47.051 66.9871C47.7946 66.0681 48.4605 65.284 49.0809 64.4667C49.6967 63.6551 50.3878 63.2642 51.4678 63.542C52.4428 63.7923 53.4715 63.8312 54.7453 63.998C53.3688 61.5874 52.1269 59.4156 50.9649 57.3821ZM17.5296 63.9866C18.703 63.8311 19.7305 63.79 20.7056 63.5385C21.7924 63.2585 22.4721 63.6826 23.0867 64.4793C23.7128 65.2908 24.3731 66.0761 25.1155 66.9928C26.1054 65.2714 27.0382 63.6483 27.8752 62.1943C25.591 60.5461 23.4368 58.9904 21.2142 57.3855C20.1593 59.2133 19.0292 61.1679 17.907 63.127C17.7873 63.3396 17.7098 63.5751 17.5296 63.9866Z" fill="black"/>
<path d="M39.5763 6.26694C40.8319 6.45783 42.0955 6.65329 43.3602 6.84189C43.5632 6.87161 43.7741 6.85675 43.976 6.89104C44.7389 7.0202 45.5429 7.0865 45.8098 8.02608C46.0561 8.8925 45.4562 9.33715 44.9465 9.85495C43.8996 10.9168 42.8824 12.0084 41.7785 13.1652C41.9894 14.3482 42.2232 15.6627 42.4581 16.9784C42.5129 17.2824 42.5973 17.5842 42.6189 17.8905C42.725 19.3742 41.8275 20.0223 40.5001 19.3765C39.3437 18.813 38.209 18.2014 37.1005 17.5487C36.3992 17.1361 35.7891 17.1281 35.0889 17.5453C34.0728 18.1511 33.0145 18.6861 31.9722 19.2496C31.3735 19.5731 30.7748 19.8988 30.1065 19.4051C29.3937 18.8793 29.5078 18.1603 29.6424 17.4344C29.9149 15.9702 30.1852 14.5048 30.4315 13.1709C29.4713 12.1479 28.5955 11.2083 27.7117 10.2767C27.4277 9.97725 27.1038 9.71664 26.8301 9.40916C25.8973 8.36328 26.1949 7.32082 27.5771 7.0122C28.6274 6.77788 29.7131 6.70701 30.7805 6.55156C31.3849 6.46354 31.987 6.35038 32.6416 6.23951C33.1958 5.08618 33.7284 3.974 34.2632 2.86411C34.4423 2.49262 34.6019 2.10856 34.8129 1.7565C35.5074 0.597457 36.6911 0.576884 37.3491 1.75193C37.8521 2.64922 38.2409 3.60937 38.6914 4.53752C38.9605 5.08846 39.2502 5.63141 39.5763 6.26694ZM41.3702 9.55433C41.3086 9.44688 41.2482 9.34058 41.1866 9.23313C40.6814 9.17369 40.1762 9.08111 39.6687 9.05939C38.2774 9.00224 37.3834 8.34613 36.9158 7.00877C36.7322 6.48412 36.5703 5.86687 35.9841 5.48167C35.6454 6.17893 35.3056 6.76302 35.0729 7.38712C34.684 8.43414 33.9337 8.91765 32.8651 9.02052C32.2185 9.08225 31.5765 9.18398 30.598 9.31086C31.1853 9.90295 31.5229 10.3476 31.9551 10.6585C33.1206 11.4986 33.3806 12.5811 33.0213 13.9162C32.872 14.4728 32.8286 15.0569 32.7066 15.8136C33.4786 15.4101 34.0534 15.1689 34.5632 14.8306C35.5781 14.1551 36.5429 14.1013 37.5727 14.8089C38.1052 15.1747 38.7176 15.4238 39.4646 15.8148C39.3163 14.8043 39.2548 13.9848 39.0643 13.1972C38.8545 12.3319 39.1145 11.6975 39.744 11.1306C40.3051 10.6254 40.8296 10.0813 41.3702 9.55433Z" fill="black"/>
<path d="M6.28736 17.5393C6.85984 16.3643 7.4232 15.2086 7.98655 14.0542C8.16788 13.6827 8.32297 13.2963 8.5385 12.9466C9.23073 11.823 10.313 11.7944 10.9664 12.9363C11.5537 13.9639 12.0179 15.0623 12.547 16.1231C12.7956 16.6214 13.0693 17.1084 13.3236 17.585C14.7502 17.7668 16.0845 17.8845 17.3948 18.1245C18.1555 18.264 19.1339 18.1474 19.4259 19.2047C19.6984 20.1923 19.0016 20.7192 18.4018 21.2885C17.3948 22.2452 16.3936 23.2065 15.3866 24.1701C15.6557 25.664 15.9089 27.0803 16.1655 28.4965C16.202 28.7 16.2693 28.8988 16.2886 29.1023C16.4323 30.5505 15.471 31.2524 14.1515 30.6031C12.7203 29.8979 11.3302 29.1103 9.79864 28.293C8.70956 28.8611 7.57715 29.4509 6.44588 30.043C6.08095 30.2339 5.72971 30.4568 5.35452 30.6237C4.01797 31.2181 3.0646 30.5357 3.26873 29.068C3.46716 27.6404 3.78647 26.2287 4.05104 24.8102C4.07955 24.6593 4.09438 24.5061 4.13429 24.2215C3.20145 23.3025 2.20816 22.3435 1.23883 21.3605C0.64582 20.7592 -0.265357 20.2906 0.0733403 19.207C0.434846 18.0468 1.5205 18.2046 2.39405 18.0582C3.65761 17.8479 4.93371 17.7165 6.28736 17.5393ZM13.1457 27.0757C12.9872 26.055 12.9347 25.232 12.7203 24.4536C12.4774 23.5723 12.8013 22.971 13.3898 22.3892C13.9542 21.8303 14.4777 21.229 15.1152 20.5421C14.3762 20.4438 13.725 20.3352 13.0693 20.2735C12.0156 20.1752 11.2219 19.7705 10.8204 18.7029C10.5775 18.0571 10.1989 17.4616 9.76671 16.6237C9.38012 17.3644 9.06195 17.8308 8.88291 18.344C8.4142 19.6928 7.49048 20.2952 6.08665 20.31C5.53926 20.3158 4.99415 20.4861 4.22666 20.6198C4.90976 21.2599 5.4104 21.772 5.95665 22.2292C6.69448 22.8464 7.03546 23.5414 6.77773 24.5359C6.58272 25.2891 6.53939 26.0812 6.40254 27.0414C7.30916 26.567 8.00708 26.2401 8.66509 25.8469C9.40521 25.4046 10.0974 25.4011 10.8387 25.8412C11.5309 26.2504 12.2562 26.6025 13.1457 27.0757Z" fill="black"/>
<path d="M68.0363 24.1753C68.2975 25.6235 68.5438 26.9883 68.7878 28.3531C68.8426 28.6572 68.9201 28.9612 68.9327 29.2664C68.9828 30.5649 68.115 31.1947 66.9324 30.6518C65.8125 30.1363 64.744 29.5099 63.6538 28.9315C63.2911 28.7395 62.9308 28.544 62.4267 28.2731C61.2202 28.9189 59.96 29.5945 58.6999 30.2688C57.9792 30.6541 57.2584 31.2119 56.4248 30.598C55.5957 29.9877 55.882 29.1567 56.0473 28.3348C56.3199 26.9757 56.5274 25.6041 56.7544 24.285C55.7406 23.2449 54.7735 22.2504 53.8019 21.2605C53.5852 21.0399 53.3286 20.8582 53.1268 20.6262C52.2806 19.6603 52.5577 18.5687 53.8042 18.2966C55.1042 18.012 56.4373 17.844 57.7648 17.7263C58.579 17.6542 59.0865 17.3525 59.416 16.5912C59.9064 15.4573 60.488 14.3646 61.0217 13.249C61.2988 12.6683 61.6227 12.1562 62.356 12.1299C63.1725 12.1014 63.5135 12.6729 63.818 13.297C64.5159 14.7258 65.2195 16.1512 65.9049 17.5457C67.5471 17.7846 69.0672 18.0075 70.5897 18.2246C71.2739 18.3218 71.9137 18.4601 72.1326 19.2659C72.3481 20.0603 71.8532 20.5221 71.3674 20.9896C70.2544 22.0595 69.1379 23.1214 68.0363 24.1753ZM65.8114 27.0226C65.6723 26.1939 65.5947 25.5389 65.4476 24.9C65.1773 23.7295 65.4362 22.7808 66.4318 22.0424C66.9221 21.6789 67.3498 21.2308 68.0489 20.6033C67.0316 20.457 66.344 20.3347 65.6506 20.265C64.6516 20.1655 63.9035 19.778 63.5135 18.7744C63.2421 18.0772 62.8555 17.4245 62.4142 16.5375C61.9774 17.4154 61.5931 18.0737 61.3148 18.7744C60.9202 19.77 60.1767 20.1689 59.1754 20.2661C58.4786 20.3335 57.7864 20.4547 57.1204 20.5473C57.7032 21.2011 58.1856 21.8058 58.7341 22.3407C59.3761 22.9671 59.6829 23.6152 59.4183 24.5468C59.2062 25.2932 59.1777 26.091 59.0466 27.0203C59.6555 26.7163 60.1014 26.5597 60.4721 26.2956C61.7459 25.3869 62.9832 25.2738 64.281 26.2625C64.671 26.5597 65.1728 26.7117 65.8114 27.0226Z" fill="black"/>
<path d="M36.0275 55.9734C30.1761 56.0179 23.7671 51.4481 23.8058 43.6079C23.8435 35.8318 30.232 31.31 36.1426 31.342C42.1309 31.374 48.4088 36.0261 48.3654 43.7234C48.3209 51.4881 41.9495 56.0808 36.0275 55.9734ZM45.6593 43.6114C45.6467 38.3214 41.425 34.0533 36.1472 33.9961C30.8615 33.9378 26.5188 38.2859 26.512 43.6434C26.5052 49.0111 30.7999 53.3535 36.1005 53.3375C41.4181 53.3215 45.6718 48.9928 45.6593 43.6114Z" fill="black"/>
<path d="M34.1437 45.9488C35.8201 44.2685 37.4132 42.6671 39.012 41.0726C39.3393 40.7468 39.6587 40.3959 40.0384 40.1421C40.6075 39.7638 41.302 39.8815 41.7125 40.3662C42.1288 40.8588 42.1402 41.4063 41.8174 41.939C41.66 42.1985 41.4285 42.4168 41.2119 42.6351C39.215 44.6423 37.225 46.6563 35.2111 48.6464C34.0068 49.8363 33.2724 49.7494 32.4171 48.3377C31.7774 47.2816 31.1764 46.2025 30.5628 45.1304C30.4351 44.9075 30.2983 44.6812 30.2219 44.4388C29.9869 43.6993 30.2504 43.0638 30.8947 42.7448C31.5767 42.4076 32.1229 42.666 32.497 43.2249C33.0603 44.0685 33.5507 44.9589 34.1437 45.9488Z" fill="black"/>
</svg>
