<svg width="70" height="71" viewBox="0 0 70 71" fill="none" xmlns="http://www.w3.org/2000/svg">
<path d="M15.0742 27.652C15.0031 26.3851 15.5881 25.5983 16.2507 24.8235C17.5496 23.3045 18.8322 21.7713 20.0819 20.2118C20.879 19.2178 21.8029 18.4726 23.2822 18.2797C23.2822 17.1542 23.2822 16.032 23.2822 14.9098C23.2822 14.0002 23.2866 13.0906 23.2811 12.181C23.2735 10.8604 23.2702 10.8604 22.05 10.5141C21.3098 10.3037 20.5663 10.1009 19.8271 9.88501C18.2199 9.41596 17.5562 8.69704 17.542 7.4203C17.5267 6.12821 18.1739 5.34792 19.7615 4.90846C23.6463 3.83446 27.5333 2.76703 31.4334 1.74893C35.8616 0.592736 34.2139 0.583969 38.6923 1.75222C42.3738 2.71114 46.0399 3.72925 49.7125 4.72215C50.1061 4.82845 50.5085 4.91503 50.8879 5.06079C52.5181 5.68656 53.1403 7.48386 52.0316 8.82307C51.3089 9.69542 51.4696 10.5908 51.4488 11.5146C51.427 12.4516 51.2837 13.4073 52.1486 14.1602C52.6581 14.604 52.5892 15.2276 52.1464 15.7525C51.6926 16.2895 51.0803 16.3783 50.4418 15.941C49.4414 15.255 48.9242 14.2676 48.875 13.0599C48.84 12.204 48.8684 11.3459 48.8684 10.3869C48.4726 10.4549 48.2233 10.5185 47.9697 10.5382C47.0644 10.6072 46.7582 11.0807 46.7866 11.9826C46.8435 13.7996 46.8358 15.621 46.7877 17.4381C46.7681 18.1658 46.9758 18.6129 47.6406 18.9493C48.0703 19.1663 48.4103 19.5762 48.7635 19.9269C50.3412 21.4962 51.9102 23.0744 53.4825 24.6503C54.7716 25.9424 54.7716 25.9435 55.1499 27.6509C56.5516 27.6509 57.9916 27.6509 59.4316 27.6509C60.4747 27.6509 61.5189 27.6531 62.562 27.6531C64.0096 27.6531 65.1248 28.2986 65.7973 29.5512C66.7846 31.3913 67.7151 33.2653 68.5821 35.1645C68.8325 35.7125 68.8533 36.3985 68.8544 37.021C68.8708 45.2064 68.8686 53.3907 68.8609 61.5761C68.8598 62.3137 68.9025 62.9712 69.4677 63.5838C69.7947 63.9378 69.8964 64.5669 69.9532 65.0885C70.0319 65.8074 69.9926 66.5417 69.9696 67.2694C69.9204 68.7894 69.0402 69.7199 67.5117 69.7955C66.38 69.8514 65.244 69.8119 64.1102 69.8119C60.5261 69.813 56.942 69.8152 53.3579 69.8097C52.762 69.8086 52.2098 69.8196 51.7408 70.3182C51.1656 70.9287 50.3718 70.9309 49.5846 70.9298C41.4181 70.9221 33.2528 70.9254 25.0863 70.9254C23.4528 70.9254 21.8182 70.9714 20.188 70.8991C19.5888 70.8728 18.9043 70.6974 18.4342 70.3511C17.8744 69.938 17.3386 69.8042 16.6859 69.8053C12.1942 69.8174 7.70263 69.8273 3.21211 69.7933C2.55499 69.7878 1.87272 69.6157 1.25605 69.379C0.914919 69.2475 0.534423 68.8661 0.434925 68.5209C-0.0439762 66.8464 -0.320602 65.0962 0.660161 63.5444C1.08877 62.866 1.22325 62.2567 1.22216 61.5279C1.21997 53.3885 1.23091 45.2491 1.20794 37.1098C1.20466 36.1256 1.38289 35.2368 1.84211 34.3678C2.60529 32.9223 3.31708 31.4494 4.0409 29.983C4.82157 28.4005 6.04944 27.6093 7.84368 27.6421C10.1944 27.6849 12.5485 27.652 15.0742 27.652ZM29.0586 62.5241C29.0586 61.838 29.0586 61.301 29.0586 60.7629C29.0597 56.9897 29.0443 53.2176 29.0684 49.4443C29.0782 47.8684 29.5429 47.418 31.1086 47.3873C32.5136 47.3588 33.9208 47.3796 35.3258 47.3796C36.5045 47.3796 37.6842 47.3654 38.8629 47.384C40.5773 47.4125 40.9906 47.8465 41.0245 49.6043C41.0311 49.9221 41.0267 50.241 41.0267 50.5589C41.0267 54.0592 41.0223 57.5596 41.0311 61.0588C41.0322 61.5367 41.0967 62.0156 41.1317 62.489C43.3983 62.489 45.5052 62.489 47.6362 62.489C47.6362 54.0603 47.6362 45.727 47.6362 37.4111C45.7173 37.0889 23.397 37.1985 22.4589 37.5164C22.1724 39.6435 22.2872 61.575 22.5956 62.5241C24.6632 62.5241 26.7384 62.5241 29.0586 62.5241ZM3.8922 37.3158C3.8922 45.8015 3.8922 54.1283 3.8922 62.4693C9.21259 62.4693 14.4368 62.4693 19.6445 62.4693C19.9627 60.0473 19.8282 38.3153 19.4816 37.3158C14.3504 37.3158 9.19619 37.3158 3.8922 37.3158ZM66.2128 37.3629C60.8596 37.3629 55.6726 37.3629 50.4156 37.3629C50.4156 45.7982 50.4156 54.1228 50.4156 62.4737C55.7436 62.4737 60.9667 62.4737 66.2128 62.4737C66.2128 54.068 66.2128 45.773 66.2128 37.3629ZM50.0143 25.1928C50.058 25.0974 50.1018 25.0021 50.1455 24.9067C48.9581 23.7297 47.7947 22.5275 46.5658 21.3954C46.2695 21.1225 45.7578 20.9593 45.3445 20.9571C38.1402 20.9308 30.9348 20.9351 23.7294 20.9483C23.3861 20.9494 22.9323 20.9899 22.7169 21.2025C21.5142 22.3894 20.481 23.7232 19.3231 25.1928C29.7463 25.1928 39.8798 25.1928 50.0143 25.1928ZM20.5411 7.35125C20.9183 7.48167 21.1283 7.56824 21.3458 7.62742C24.4926 8.48114 27.6951 9.16719 30.7708 10.2269C33.7415 11.2516 36.5264 11.1694 39.4774 10.193C42.728 9.11787 46.0803 8.35183 49.4622 7.43126C49.2927 7.3381 49.2194 7.27673 49.1363 7.25481C44.6371 6.03067 40.14 4.79667 35.632 3.6087C35.1837 3.49034 34.6446 3.58569 34.1778 3.70185C32.2009 4.19392 30.2329 4.72325 28.2648 5.25257C25.7358 5.93204 23.2112 6.62576 20.5411 7.35125ZM44.1363 18.2929C44.1363 16.009 44.1363 13.8917 44.1363 11.6571C43.6825 11.7415 43.3316 11.7842 42.9937 11.8741C40.9819 12.4067 38.9569 12.8999 36.967 13.5081C35.6549 13.9092 34.4161 13.8972 33.1084 13.5026C31.1163 12.8999 29.0946 12.399 27.0817 11.8653C26.7439 11.7755 26.3929 11.7393 25.9446 11.6604C25.9446 13.9289 25.9446 16.0802 25.9446 18.2929C32.0402 18.2929 38.0472 18.2929 44.1363 18.2929ZM49.9039 65.2606C39.9049 65.2606 30.0798 65.2606 20.2273 65.2606C20.2273 66.3214 20.2273 67.2858 20.2273 68.2524C30.1782 68.2524 40.0022 68.2524 49.9039 68.2524C49.9039 67.2201 49.9039 66.2886 49.9039 65.2606ZM38.1785 62.5153C38.2561 62.2304 38.3228 62.1 38.3228 61.9695C38.3348 58.3344 38.3326 54.6992 38.3534 51.0641C38.3578 50.2761 37.9609 50.0449 37.2502 50.0547C35.8452 50.0745 34.4391 50.0449 33.0341 50.0624C31.8248 50.0788 31.7395 50.1599 31.7352 51.406C31.722 54.7233 31.7253 58.0407 31.7373 61.358C31.7384 61.7427 31.8336 62.1274 31.8849 62.5142C34.0564 62.5153 36.0824 62.5153 38.1785 62.5153ZM17.7792 29.8011C29.3636 29.8011 40.8124 29.8011 52.3017 29.8011C52.3017 29.1205 52.3017 28.554 52.3017 28.0038C50.5501 27.6871 18.7053 27.7769 17.7005 28.1134C17.7005 28.4016 17.6918 28.7172 17.7038 29.0318C17.7114 29.252 17.7464 29.4723 17.7792 29.8011ZM49.8886 32.7042C39.9563 32.7042 30.1148 32.7042 20.1945 32.7042C20.1945 33.3343 20.1945 33.8516 20.1945 34.462C30.1268 34.462 39.9705 34.462 49.8886 34.462C49.8886 33.8363 49.8886 33.319 49.8886 32.7042ZM15.0075 30.2515C12.4807 30.2515 9.94953 30.2384 7.41726 30.2702C7.14173 30.2734 6.74155 30.4608 6.618 30.6844C5.94885 31.891 5.34967 33.136 4.69911 34.4204C7.00287 34.736 16.5 34.6264 17.4501 34.2987C17.4501 33.7278 17.4501 33.1579 17.4501 32.496C16.0342 32.4258 15.5203 31.3935 15.0075 30.2515ZM65.4343 34.484C64.7695 33.1656 64.2447 32.0116 63.6061 30.9266C63.4148 30.6011 62.9064 30.2811 62.5357 30.2723C60.0505 30.2154 57.563 30.2428 55.0165 30.2428C54.6557 31.548 53.8575 32.3447 52.6002 32.6176C52.5805 32.9584 52.5455 33.228 52.5553 33.4965C52.5663 33.8012 52.6166 34.1048 52.6592 34.485C56.8807 34.484 61.029 34.484 65.4343 34.484ZM2.76164 67.1335C7.77042 67.1335 12.5955 67.1335 17.46 67.1335C17.46 66.4694 17.46 65.9006 17.46 65.265C12.5288 65.265 7.67202 65.265 2.76164 65.265C2.76164 65.9313 2.76164 66.4979 2.76164 67.1335ZM67.316 65.3055C65.1565 65.003 53.5416 65.1104 52.6515 65.4107C52.6515 65.9927 52.6515 66.5592 52.6515 67.1521C57.5772 67.1521 62.4023 67.1521 67.316 67.1521C67.316 66.5099 67.316 65.9433 67.316 65.3055Z" fill="black"/>
<path d="M30.3397 41.68C30.3397 41.2745 30.3146 40.8668 30.3452 40.4635C30.3922 39.8498 30.7322 39.4586 31.3511 39.3764C32.0104 39.2887 32.6216 39.5364 32.7003 40.1983C32.8206 41.2088 32.814 42.2521 32.7113 43.2658C32.6533 43.8368 32.1329 44.1754 31.5129 44.1338C30.8427 44.0888 30.4305 43.6954 30.3528 43.0313C30.3004 42.5863 30.343 42.1304 30.343 41.68C30.3419 41.6811 30.3408 41.68 30.3397 41.68Z" fill="black"/>
<path d="M39.7478 41.7157C39.7478 42.1212 39.7839 42.5311 39.7401 42.9322C39.6581 43.6807 39.1858 44.1421 38.5374 44.1421C37.8475 44.1432 37.373 43.7366 37.3128 43.1108C37.2221 42.1804 37.2286 41.2237 37.3391 40.2954C37.4167 39.6477 37.947 39.319 38.6293 39.3705C39.3203 39.422 39.6876 39.8253 39.7412 40.4993C39.774 40.9015 39.7478 41.3092 39.7478 41.7157Z" fill="black"/>
<path d="M16.5493 49.9933C16.5493 50.401 16.6084 50.8207 16.5362 51.2153C16.4181 51.8575 16.0015 52.2641 15.328 52.3123C14.7081 52.3561 14.1089 51.8608 14.0531 51.1473C13.9853 50.2914 13.9897 49.4201 14.0663 48.5653C14.1253 47.9089 14.5944 47.4891 15.2591 47.4694C15.9283 47.4497 16.3788 47.8683 16.5176 48.5029C16.6226 48.9829 16.5832 49.4958 16.6084 49.9933C16.5887 49.9922 16.569 49.9922 16.5493 49.9933Z" fill="black"/>
<path d="M16.606 56.866C16.5831 57.3197 16.6148 57.7832 16.5251 58.2216C16.3939 58.8627 15.9533 59.2912 15.2929 59.2868C14.6357 59.2835 14.1372 58.8638 14.0759 58.215C13.9896 57.3175 13.9885 56.3991 14.0759 55.5015C14.1383 54.8528 14.6325 54.4473 15.2994 54.4473C15.9697 54.4484 16.4005 54.8681 16.5295 55.5092C16.617 55.9487 16.5842 56.4122 16.606 56.866Z" fill="black"/>
<path d="M9.53751 49.8603C9.5386 50.2669 9.55391 50.6745 9.53532 51.08C9.50361 51.7617 9.11328 52.1683 8.47037 52.2976C7.88541 52.4149 7.18346 51.959 7.10911 51.2598C7.0107 50.3293 7.03476 49.3715 7.14082 48.44C7.21626 47.7824 7.76076 47.4361 8.42226 47.4898C9.08594 47.5435 9.48831 47.9534 9.53204 48.6405C9.55828 49.046 9.53641 49.4537 9.53751 49.8603Z" fill="black"/>
<path d="M9.52632 42.876C9.52632 43.3264 9.5624 43.7801 9.51757 44.2261C9.45634 44.8398 9.08459 45.2026 8.46465 45.264C7.86219 45.3232 7.27177 45.0963 7.20507 44.5034C7.08699 43.4502 7.08261 42.3664 7.18976 41.311C7.24771 40.7335 7.80752 40.4419 8.42091 40.5044C9.02555 40.5658 9.42573 40.9219 9.50555 41.528C9.5635 41.9707 9.51648 42.4266 9.51648 42.8771C9.51976 42.876 9.52304 42.876 9.52632 42.876Z" fill="black"/>
<path d="M14.0465 42.7959C14.0465 42.3904 13.9918 41.9751 14.0585 41.5805C14.1678 40.935 14.5724 40.5263 15.2536 40.5011C15.938 40.477 16.4366 40.8627 16.5033 41.4983C16.5995 42.4332 16.6039 43.3965 16.4924 44.328C16.4158 44.9636 15.8888 45.3089 15.2022 45.2661C14.5779 45.2267 14.1875 44.8628 14.076 44.2798C13.9842 43.7976 14.0148 43.2913 13.9907 42.7959C14.0093 42.797 14.0279 42.797 14.0465 42.7959Z" fill="black"/>
<path d="M9.52774 56.835C9.52774 57.2866 9.55727 57.7403 9.52118 58.1885C9.47089 58.8132 9.08164 59.1825 8.48356 59.2592C7.88986 59.3359 7.28959 59.0872 7.21962 58.4986C7.09497 57.4444 7.08404 56.3594 7.19009 55.303C7.24586 54.7418 7.80785 54.3988 8.41359 54.4602C9.06852 54.527 9.47417 54.938 9.52774 55.6153C9.55945 56.0186 9.53321 56.4274 9.53321 56.8339C9.53102 56.835 9.52993 56.835 9.52774 56.835Z" fill="black"/>
<path d="M56.0479 49.9273C56.0479 50.3349 56.096 50.7503 56.037 51.1503C55.932 51.8681 55.3787 52.3558 54.7533 52.3098C54.0809 52.2605 53.6195 51.8539 53.555 51.2117C53.4697 50.359 53.4741 49.4867 53.5473 48.6319C53.6086 47.9195 54.2198 47.4329 54.8233 47.4538C55.4279 47.4746 55.955 47.9842 56.0446 48.7042C56.0949 49.1064 56.0534 49.5196 56.0534 49.9273C56.0523 49.9273 56.0501 49.9273 56.0479 49.9273Z" fill="black"/>
<path d="M56.06 56.8815C56.06 57.2443 56.0928 57.6114 56.0534 57.9698C55.967 58.7621 55.4149 59.3145 54.7687 59.3046C54.1695 59.2947 53.5955 58.7873 53.5364 58.0673C53.4708 57.2563 53.4686 56.4311 53.5397 55.6212C53.6031 54.9045 54.1892 54.4278 54.808 54.4377C55.4291 54.4475 55.9506 54.933 56.0436 55.6585C56.0949 56.0596 56.0523 56.4739 56.0523 56.8815C56.0556 56.8815 56.0578 56.8815 56.06 56.8815Z" fill="black"/>
<path d="M63.1515 49.9257C63.0771 50.4287 63.0596 50.98 62.9022 51.4863C62.7239 52.0595 62.2418 52.3652 61.6415 52.2929C61.0533 52.2227 60.617 51.8556 60.5755 51.2397C60.5186 50.3849 60.5295 49.5235 60.5514 48.6665C60.5689 47.9826 60.9713 47.5563 61.6349 47.4906C62.2942 47.4248 62.783 47.7591 62.947 48.4144C63.0651 48.8901 63.0826 49.392 63.1515 49.9257Z" fill="black"/>
<path d="M60.5533 56.927C60.5533 56.4755 60.5172 56.0196 60.562 55.5724C60.6298 54.8963 61.0551 54.4995 61.7144 54.4579C62.318 54.4206 62.8592 54.7549 62.9172 55.3346C63.0178 56.3516 63.0232 57.396 62.9008 58.4087C62.822 59.0596 62.224 59.3501 61.5614 59.2492C60.9589 59.1572 60.5992 58.767 60.5566 58.1457C60.5281 57.7413 60.5511 57.3325 60.5511 56.9259C60.5522 56.927 60.5533 56.927 60.5533 56.927Z" fill="black"/>
<path d="M56.0324 42.871C56.0324 43.3214 56.0915 43.7828 56.0182 44.2212C55.9111 44.8711 55.489 45.259 54.8046 45.2689C54.1179 45.2787 53.6379 44.8974 53.5712 44.2541C53.4783 43.362 53.4794 42.448 53.5636 41.5548C53.6237 40.9137 54.0917 40.5203 54.7718 40.4951C55.4223 40.471 55.9373 40.9225 56.0401 41.6534C56.0959 42.0513 56.0499 42.4644 56.0499 42.871C56.0434 42.871 56.0379 42.871 56.0324 42.871Z" fill="black"/>
<path d="M60.5454 42.9017C60.5465 42.4962 60.5225 42.0885 60.552 41.6852C60.6001 41.0156 60.974 40.5893 61.6388 40.5082C62.3145 40.4249 62.8634 40.7756 62.9366 41.4156C63.0471 42.3855 63.0438 43.385 62.9399 44.356C62.87 45.0091 62.3211 45.3226 61.6443 45.2656C60.9533 45.2064 60.599 44.7911 60.552 44.1182C60.5214 43.7138 60.5443 43.3072 60.5454 42.9017Z" fill="black"/>
</svg>
