<svg width="79" height="71" viewBox="0 0 79 71" fill="none" xmlns="http://www.w3.org/2000/svg">
<path d="M49.5778 55.4176C48.777 52.6927 48.777 52.6927 49.5877 50.1394C47.7786 48.6428 47.014 46.7009 47.7128 44.2234C46.8527 44.2234 46.1012 44.2234 45.2115 44.2234C45.0897 45.1053 44.9822 46.0015 44.8395 46.8933C44.2274 50.7277 41.1643 53.5746 37.3212 53.8704C36.9757 53.8968 36.5434 53.9012 36.2889 53.7209C35.9499 53.4789 35.522 53.0336 35.5396 52.6982C35.5626 52.276 35.9334 51.8064 36.2779 51.493C36.5094 51.283 36.9515 51.294 37.3048 51.2313C40.5456 50.6562 42.4304 48.8143 42.3799 45.4946C42.3349 42.541 43.5285 39.8821 43.7732 37.0264C43.8401 36.2478 44.4983 35.7937 45.1467 35.8696C45.7841 35.9443 46.3162 36.5216 46.2756 37.3046C46.2306 38.17 46.043 39.0299 45.8982 39.8887C45.8138 40.3912 45.6898 40.8871 45.5504 41.5469C46.1418 41.5469 46.641 41.5469 47.1401 41.5469C50.9854 41.5469 54.8318 41.5304 58.677 41.5535C61.2387 41.5689 63.1399 43.1656 63.3989 45.6892C63.4987 46.6591 63.1312 47.6762 62.9491 48.8484C64.0626 49.7435 64.9929 51.0235 64.9721 52.7356C64.9523 54.4268 64.1953 55.7958 62.7999 56.7008C63.8201 59.9458 63.5053 61.2962 61.2617 63.4668C61.6655 64.5994 62.1252 65.7211 61.7796 67.0164C61.2212 69.109 59.5371 70.6309 57.3792 70.6628C53.7906 70.7145 50.201 70.6793 46.6113 70.6749C46.3579 70.6749 46.0924 70.6606 45.8521 70.588C45.2575 70.4077 44.8615 70.0118 44.8812 69.3619C44.9032 68.6516 45.3179 68.1754 46.0178 68.1325C47.0326 68.071 48.0551 68.1171 49.1785 68.1171C49.1028 67.2341 48.9426 66.4875 49.0041 65.7584C49.0677 65.0074 49.3464 64.2751 49.5526 63.4437C48.4369 62.3793 47.4221 61.1752 47.4451 59.4268C47.4703 57.6971 48.3184 56.4061 49.5778 55.4176ZM56.9184 54.815C57.9914 54.815 59.0643 54.8414 60.1361 54.8084C61.4845 54.7677 62.3972 53.9661 62.4499 52.8346C62.5025 51.7162 61.6304 50.7673 60.2722 50.72C58.0791 50.6441 55.8784 50.6386 53.6853 50.7222C52.2986 50.775 51.5197 51.6646 51.5646 52.8489C51.6085 54.0123 52.4588 54.7622 53.8543 54.8073C54.8745 54.8403 55.897 54.8139 56.9184 54.815ZM55.4801 44.1431C55.4801 44.1442 55.4801 44.1464 55.4801 44.1475C54.3008 44.1475 53.1181 44.1013 51.942 44.1607C50.7287 44.2212 50.0222 44.9964 50.0265 46.1257C50.0309 47.2782 50.7133 48.0457 51.9453 48.0732C54.2525 48.1249 56.5619 48.1216 58.869 48.0776C60.1032 48.0534 60.9721 47.1264 60.9206 46.0477C60.8712 45.0371 60.0067 44.2003 58.8657 44.1541C57.7379 44.1079 56.609 44.1431 55.4801 44.1431ZM55.513 57.4134C54.3841 57.4134 53.2552 57.3837 52.1285 57.4211C50.789 57.4662 50.0375 58.1897 50.0254 59.3663C50.0123 60.5737 50.7221 61.3325 52.0638 61.3599C54.3194 61.4061 56.5772 61.4039 58.8328 61.3567C60.0901 61.3303 60.9798 60.4374 60.914 59.3564C60.8492 58.2986 59.8794 57.3155 58.7428 57.3969C57.6721 57.4739 56.5904 57.4134 55.513 57.4134ZM55.3551 68.0765C55.3551 68.0732 55.3551 68.0688 55.3551 68.0655C56.0693 68.0655 56.7889 68.1215 57.4955 68.0523C58.5322 67.9511 59.31 67.1066 59.3704 66.1334C59.4263 65.2317 58.8032 64.2674 57.8048 64.1662C56.2964 64.0133 54.7539 63.9705 53.2465 64.1079C52.0452 64.2179 51.4659 65.1504 51.5712 66.2709C51.6656 67.2715 52.4061 67.9808 53.5185 68.0677C54.1285 68.116 54.7429 68.0765 55.3551 68.0765Z" fill="black"/>
<path d="M16.5042 68.012C19.1822 68.012 21.6726 68.012 24.4021 68.012C24.4076 59.2612 24.4043 50.5664 24.4043 41.7859C21.7143 41.7859 19.2228 41.7859 16.6062 41.7859C16.5711 42.2434 16.5097 42.6865 16.5086 43.1286C16.4998 45.749 16.5064 48.3694 16.5009 50.9909C16.4998 51.3999 16.5799 51.8673 16.4121 52.2038C16.231 52.5677 15.8207 53.0252 15.4817 53.0494C15.0616 53.0791 14.4889 52.8108 14.2113 52.4787C13.9568 52.1752 13.937 51.6155 13.9338 51.1679C13.9129 47.8284 13.9096 44.4877 13.9283 41.1481C13.937 39.5537 14.3583 39.1248 15.9261 39.1149C18.8991 39.0962 21.8722 39.0984 24.8453 39.1127C26.6347 39.1215 26.9396 39.4525 26.9748 41.301C26.9802 41.5979 26.9759 41.8937 26.9759 42.4501C29.4191 40.4752 31.7328 38.7092 33.9259 36.8013C35.8403 35.1365 36.7168 32.9295 36.7476 30.374C36.7596 29.4041 36.8068 28.4145 37.0163 27.4721C37.4376 25.5741 38.8408 24.7043 40.6334 24.3811C42.0914 24.1182 43.9894 24.9749 44.5796 26.4758C45.2477 28.1748 45.635 29.9968 46.0047 31.7947C46.1781 32.637 45.5637 33.2803 44.8659 33.3287C44.2494 33.3705 43.6866 32.8976 43.4979 32.107C43.2379 31.0107 43.0349 29.9001 42.7705 28.8048C42.6762 28.4123 42.5709 27.935 42.2966 27.692C41.9049 27.3445 41.363 27.0048 40.8682 26.9773C40.2505 26.9432 39.6702 27.3368 39.5287 28.0351C39.4069 28.6322 39.3224 29.2502 39.3356 29.8572C39.4146 33.5288 38.0915 36.5968 35.3345 38.9874C33.5923 40.4972 31.7416 41.8816 29.9358 43.3177C26.9813 45.6687 26.9802 45.6676 26.9802 49.4657C26.9802 54.1413 26.9802 58.818 26.9802 63.4936C26.9802 64.0533 26.9802 64.613 26.9802 65.0496C27.1635 65.2398 27.2249 65.363 27.3039 65.3762C29.4476 65.7445 31.43 66.4813 33.2446 67.7217C33.7032 68.0351 34.4141 68.056 35.0131 68.0702C36.7552 68.1131 38.4985 68.0834 40.2418 68.0889C40.5994 68.09 40.9713 68.0691 41.3114 68.156C41.9104 68.3078 42.2977 68.7113 42.3119 69.359C42.3273 70.0177 41.9115 70.3795 41.3454 70.6027C41.2982 70.6214 41.2456 70.6324 41.1951 70.6324C38.538 70.5807 35.8754 70.6104 33.2281 70.4223C32.4305 70.3652 31.645 69.7538 30.9067 69.3095C29.4739 68.4452 28.5973 68.1769 27.1689 68.3034C27.1196 68.3902 27.0351 68.4727 27.0263 68.564C26.8266 70.4817 26.6423 70.6698 24.7883 70.6764C21.9172 70.6863 19.0472 70.6907 16.1762 70.6742C14.332 70.6643 13.9305 70.2519 13.9261 68.3957C13.9173 64.9011 13.9206 61.4076 13.9283 57.913C13.9294 57.5051 13.9228 57.0784 14.0336 56.6935C14.2267 56.0272 14.7083 55.6709 15.4269 55.7577C16.0796 55.8369 16.4197 56.2559 16.4779 56.8904C16.5152 57.2983 16.5031 57.7118 16.5031 58.1219C16.5053 61.3592 16.5042 64.5943 16.5042 68.012Z" fill="black"/>
<path d="M39.4864 16.1434C38.4705 16.6646 37.5852 17.1946 36.6417 17.585C34.5781 18.4394 33.176 17.4277 33.2835 15.1845C33.3176 14.4719 33.4668 13.7616 33.5951 13.0567C33.7355 12.2837 33.5666 11.6591 32.9413 11.1346C32.4322 10.7079 31.9561 10.2307 31.5216 9.72597C30.0713 8.04025 30.5935 6.32813 32.7218 5.75412C33.1651 5.63426 33.6291 5.48472 34.0767 5.50451C35.5293 5.56939 36.3543 4.87113 36.8096 3.53838C37.0059 2.96438 37.3219 2.40907 37.6828 1.91863C38.6922 0.544103 40.2741 0.524309 41.2878 1.90764C41.7673 2.56191 42.1359 3.31846 42.4398 4.075C42.8172 5.01408 43.4809 5.38685 44.4376 5.46382C45.1485 5.521 45.8704 5.61887 46.5538 5.8135C48.262 6.30174 48.8215 7.85661 47.7913 9.31031C47.3514 9.9316 46.793 10.4913 46.2028 10.9762C45.4282 11.6129 45.233 12.3629 45.4238 13.2998C45.5566 13.9518 45.6981 14.6127 45.7201 15.2736C45.7848 17.2342 44.0766 18.3778 42.2807 17.5751C41.3493 17.1583 40.4596 16.6459 39.4864 16.1434ZM39.6795 4.02771C39.5676 4.08709 39.4568 4.14757 39.3449 4.20695C39.0674 4.75347 38.7547 5.28568 38.5199 5.84979C38.0196 7.04618 37.2023 7.75324 35.8661 7.85111C35.2001 7.89949 34.5441 8.09193 33.4975 8.29426C34.2698 8.95513 34.7898 9.37079 35.278 9.82274C36.1206 10.6035 36.5506 11.5118 36.2457 12.7136C36.0657 13.4196 36.0438 14.1663 35.9253 15.0954C36.7218 14.6754 37.323 14.3994 37.8825 14.0541C38.9478 13.3954 39.9812 13.3657 41.0618 14.0266C41.6532 14.3895 42.2972 14.6677 43.0739 15.0635C42.9697 14.3213 42.9686 13.7528 42.8029 13.236C42.2862 11.6261 42.9126 10.4517 44.0931 9.43017C44.4891 9.08709 44.8204 8.67033 45.4633 7.98856C42.1545 8.30525 40.4003 6.89004 39.6795 4.02771Z" fill="black"/>
<path d="M70.2679 36.2059C69.3518 36.6831 68.5246 37.0911 67.7193 37.5375C66.7704 38.0631 65.8642 38.0433 64.9887 37.3968C64.1516 36.7788 63.9432 35.909 64.0814 34.9347C64.2164 33.9758 64.3919 33.0224 64.5828 31.8623C63.9114 31.2521 63.1039 30.6703 62.5027 29.9226C62.0496 29.3596 61.7008 28.6086 61.59 27.8971C61.4418 26.9404 62.0661 26.2037 63.1401 25.8991C63.9213 25.6781 64.7452 25.5978 65.5548 25.4933C66.3743 25.3878 66.9887 25.0909 67.2981 24.2375C67.5405 23.5679 67.8872 22.9268 68.2536 22.3121C69.4275 20.3449 71.1368 20.3262 72.315 22.2692C72.6858 22.8806 73.0314 23.5206 73.2815 24.1881C73.6194 25.0898 74.2799 25.4042 75.1554 25.5021C75.8652 25.5824 76.5882 25.6506 77.2683 25.8529C78.9436 26.3499 79.5239 28.128 78.4729 29.5311C78.0769 30.0601 77.5997 30.5516 77.0785 30.9563C76.1866 31.6501 76.033 32.5089 76.2349 33.5492C76.3808 34.2991 76.5223 35.071 76.5004 35.8276C76.4521 37.4671 75.1905 38.3622 73.6458 37.8036C72.5015 37.3913 71.433 36.7667 70.2679 36.2059ZM64.6069 28.3897C65.128 28.9098 65.6195 29.4168 66.1275 29.9061C66.9602 30.7088 67.3727 31.6116 67.0556 32.8102C66.8724 33.5041 66.8592 34.243 66.7462 35.1469C67.5032 34.7467 68.0704 34.5036 68.5751 34.1683C69.738 33.3963 70.8625 33.4326 72.0298 34.154C72.5684 34.4871 73.1609 34.7302 73.7555 35.0271C73.6886 33.669 73.3046 32.3539 73.6589 31.285C74.0298 30.1645 75.1104 29.2804 75.92 28.2435C75.1938 28.106 74.507 27.9081 73.8103 27.8597C72.5882 27.7761 71.84 27.1439 71.3595 26.0618C71.0775 25.4273 70.7177 24.8269 70.3688 24.1661C69.6348 25.302 69.1752 26.5874 68.2646 27.2593C67.3496 27.9345 65.9838 27.9983 64.6069 28.3897Z" fill="black"/>
<path d="M14.3866 31.8615C14.583 32.9919 14.7454 33.8969 14.8946 34.8041C15.0657 35.8377 14.8694 36.7537 13.9807 37.4102C13.1009 38.0601 12.1936 38.0535 11.2468 37.5279C10.4404 37.0814 9.60886 36.6823 8.67744 36.205C8.09599 36.5019 7.47394 36.8395 6.83544 37.1419C6.23643 37.4267 5.64182 37.7654 5.00551 37.9193C3.71205 38.2327 2.62374 37.4432 2.50965 36.1149C2.44931 35.4078 2.43395 34.6414 2.6402 33.9772C3.08013 32.5532 2.72797 31.4942 1.55958 30.6222C1.19535 30.3506 0.876095 29.9943 0.602922 29.626C-0.570955 28.0414 0.0225663 26.3337 1.92052 25.807C2.36264 25.6849 2.82561 25.5442 3.27431 25.5563C4.62592 25.5936 5.4959 25.0394 5.93583 23.7309C6.12892 23.1558 6.44378 22.6016 6.79375 22.1012C7.81842 20.6387 9.65055 20.6673 10.6171 22.1705C11.0307 22.8149 11.3763 23.5154 11.656 24.229C11.9829 25.0625 12.594 25.3836 13.4146 25.4881C14.1749 25.5848 14.9527 25.6453 15.6823 25.8587C17.4738 26.3821 17.9917 28.158 16.8057 29.6205C16.4514 30.057 16.0334 30.4452 15.6187 30.8257C15.2051 31.2083 14.7575 31.5536 14.3866 31.8615ZM8.88479 24.1564C8.77179 24.1872 8.65879 24.218 8.54689 24.2488C8.22325 24.8844 7.87657 25.509 7.58255 26.1577C7.11739 27.1826 6.37686 27.7566 5.23151 27.86C4.49976 27.9259 3.78007 28.1239 3.01321 28.2712C3.86345 29.3159 4.95833 30.1483 5.29953 31.2215C5.65498 32.3387 5.28417 33.6891 5.22602 35.0471C5.71861 34.8041 6.15854 34.6524 6.52387 34.3961C7.95117 33.3944 9.34885 33.3801 10.7871 34.3796C11.1898 34.66 11.6769 34.8184 12.2726 35.1032C12.1376 34.1993 12.0872 33.4373 11.9007 32.7093C11.6264 31.6339 11.9786 30.8015 12.7136 30.0636C13.2764 29.4984 13.8403 28.9332 14.6993 28.0711C11.4333 28.3449 9.5946 27.0462 8.88479 24.1564Z" fill="black"/>
<path d="M28.2076 18.1171C28.3908 19.1024 28.5729 20.0041 28.7232 20.9113C28.8933 21.9339 28.7156 22.8752 27.8785 23.5635C27.014 24.275 26.0804 24.1595 25.1457 23.6768C24.2823 23.2304 23.4167 22.7894 22.4885 22.3133C21.6339 22.7597 20.7562 23.1721 19.9236 23.6603C17.9872 24.7951 15.8304 22.9961 16.3076 21.1851C16.3855 20.8915 16.3043 20.5451 16.4151 20.2713C17.0558 18.6757 16.4787 17.5189 15.2017 16.5468C14.8013 16.2411 14.4524 15.8376 14.165 15.4186C13.2621 14.1046 13.7207 12.6025 15.2237 12.0637C15.8896 11.825 16.6192 11.6876 17.3257 11.6612C18.4732 11.6172 19.2543 11.2027 19.6668 10.0689C19.9093 9.40148 20.2582 8.7472 20.6795 8.17759C21.8073 6.65461 23.4079 6.71729 24.4457 8.30955C24.8352 8.90775 25.1687 9.55762 25.4254 10.224C25.7886 11.1675 26.4633 11.5391 27.4155 11.6271C28.1253 11.692 28.8516 11.7756 29.5274 11.9867C31.2915 12.5376 31.7907 14.1321 30.6848 15.6232C30.3206 16.1136 29.8609 16.5347 29.4265 16.9691C29.0304 17.3661 28.6113 17.7388 28.2076 18.1171ZM22.6904 10.2405C22.5829 10.29 22.4754 10.3384 22.3679 10.3878C22.087 10.9333 21.7809 11.4655 21.5319 12.0252C21.0108 13.1996 20.2099 13.9286 18.8594 14.0111C18.1913 14.0518 17.5352 14.2728 16.8803 14.4114C17.7228 15.4769 18.7936 16.3302 19.1446 17.4166C19.4935 18.4965 19.1205 19.8116 19.058 21.1576C19.7623 20.8057 20.4183 20.5264 21.025 20.1646C22.0036 19.5807 22.9427 19.5763 23.9279 20.1437C24.5752 20.5165 25.262 20.82 26.0683 21.2235C25.9597 20.3922 25.9531 19.7171 25.7721 19.0914C25.4123 17.8488 25.7787 16.8833 26.6794 16.0377C27.2181 15.5319 27.7282 14.9964 28.2504 14.4751C25.195 14.518 23.4485 13.0841 22.6904 10.2405Z" fill="black"/>
<path d="M56.5322 22.3208C55.6062 22.7948 54.7044 23.2786 53.7818 23.7217C52.9096 24.1407 52.0089 24.3034 51.1641 23.6613C50.2876 22.9938 50.1098 22.069 50.2964 21.0354C50.4598 20.1282 50.6233 19.2221 50.8142 18.1653C50.4379 17.7882 50.0056 17.3659 49.5865 16.9316C49.1247 16.4521 48.609 16.0079 48.2316 15.4669C47.1795 13.9626 47.6919 12.5122 49.445 11.9854C50.0298 11.8095 50.6474 11.6918 51.2552 11.6611C52.4324 11.6006 53.3419 11.2399 53.7061 9.98853C53.8191 9.60036 54.067 9.25288 54.2415 8.88121C54.6891 7.92893 55.3495 7.30764 56.474 7.28015C57.683 7.25156 58.35 7.94213 58.8262 8.93509C59.0478 9.39803 59.3385 9.83568 59.5009 10.3184C59.8124 11.2421 60.4981 11.5302 61.3758 11.6226C62.0867 11.6973 62.8064 11.7809 63.4953 11.9635C65.322 12.4473 65.8771 13.9549 64.7811 15.5053C64.3708 16.0859 63.8497 16.6094 63.3012 17.0624C62.4542 17.7629 62.1393 18.5513 62.4871 19.6311C62.6572 20.1612 62.6945 20.7407 62.7493 21.3015C62.9336 23.2126 61.1991 24.53 59.4427 23.7789C58.4564 23.3589 57.5206 22.8222 56.5322 22.3208ZM60.1251 21.2333C59.9935 20.4625 59.9068 19.9258 59.8091 19.3925C59.5513 17.9905 59.7313 16.749 60.9556 15.8055C61.4197 15.4471 61.7905 14.9665 62.3302 14.4112C61.4493 14.2408 60.8141 14.0406 60.1712 14.0077C58.8185 13.9395 58.0231 13.2071 57.4965 12.0338C57.2365 11.4543 56.8964 10.9111 56.576 10.3206C55.8344 11.4532 55.3693 12.7486 54.4499 13.404C53.4998 14.0824 52.1087 14.1396 50.7988 14.5003C51.3232 15.0215 51.8125 15.535 52.3292 16.0178C53.231 16.859 53.603 17.8278 53.2683 19.0681C53.0928 19.7191 53.061 20.4097 52.937 21.2707C53.8158 20.8209 54.4675 20.5262 55.0796 20.1645C56.0571 19.585 56.9973 19.5762 57.9803 20.1524C58.5903 20.5075 59.2452 20.7923 60.1251 21.2333Z" fill="black"/>
<path d="M21.1129 48.7427C21.1129 49.2046 21.1447 49.6697 21.1063 50.1294C21.0372 50.942 20.5589 51.4687 19.9182 51.505C19.2972 51.5402 18.6719 51.0355 18.6083 50.2404C18.526 49.2222 18.5358 48.1852 18.628 47.1681C18.6883 46.5017 19.1678 46.0586 19.8842 46.0377C20.5578 46.0179 21.0317 46.5314 21.1063 47.3572C21.1469 47.8158 21.1129 48.2809 21.1129 48.7427Z" fill="black"/>
</svg>
